<svg xmlns="http://www.w3.org/2000/svg" viewBox="0 0 1024 1024" width="1024" height="1024">
  <defs>
    <!-- macOS drop shadow for the squircle -->
    <filter id="shadow" x="-5%" y="-5%" width="110%" height="110%">
      <feDropShadow dx="0" dy="15" stdDeviation="20" flood-color="#000" flood-opacity="0.4"/>
    </filter>
    
    <!-- Background Gradient (Silver/Metal Dashboard) -->
    <linearGradient id="bg-grad3" x1="0%" y1="0%" x2="0%" y2="100%">
      <stop offset="0%" stop-color="#e5e5ea" />
      <stop offset="100%" stop-color="#c7c7cc" />
    </linearGradient>

    <!-- Screen Gradient -->
    <linearGradient id="screen-grad" x1="0%" y1="0%" x2="0%" y2="100%">
      <stop offset="0%" stop-color="#242426" />
      <stop offset="100%" stop-color="#121214" />
    </linearGradient>

    <!-- LED Glow Filters -->
    <filter id="glow-green">
      <feGaussianBlur stdDeviation="15" result="coloredBlur"/>
      <feMerge>
        <feMergeNode in="coloredBlur"/>
        <feMergeNode in="SourceGraphic"/>
      </feMerge>
    </filter>

    <!-- macOS Big Sur+ Squircle Approximation -->
    <path id="squircle" d="M512,0 
             C896,0 1024,128 1024,512 
             C1024,896 896,1024 512,1024 
             C128,1024 0,896 0,512 
             C0,128 128,0 512,0 Z" />
  </defs>

  <!-- 1. Base App Icon Background (Metal Casing) -->
  <use href="#squircle" fill="url(#bg-grad3)" filter="url(#shadow)" />
  
  <!-- Outer metal rim highlight -->
  <use href="#squircle" fill="none" stroke="#ffffff" stroke-width="12" stroke-opacity="0.6" />
  <!-- Inner metal rim shadow -->
  <use href="#squircle" fill="none" stroke="#8e8e93" stroke-width="12" stroke-opacity="0.4" transform="scale(0.98) translate(10.24, 10.24)" />

  <!-- 2. The Dashboard Screen Area -->
  <rect x="150" y="150" width="724" height="450" rx="40" ry="40" fill="url(#screen-grad)" stroke="#3a3a3c" stroke-width="8" filter="drop-shadow(0 10px 15px rgba(0,0,0,0.5) inset)" />
  
  <!-- 
       Abstract UI based on screenshot 
       Using stylized pills to represent lines of text for better icon readability 
  -->
  
  <!-- Row 1: Status Dot, App Name (Purple), Time -->
  <circle cx="230" cy="240" r="18" fill="#32d74b" />
  <rect x="270" y="220" width="220" height="40" rx="20" fill="#5e5ce6" />
  
  <!-- Time Indicator (Right Aligned) -->
  <rect x="734" y="220" width="90" height="40" rx="20" fill="#48484a" />
  <circle cx="754" cy="240" r="10" fill="none" stroke="#aeaeb2" stroke-width="3" />
  <path d="M754,233 L754,240 L760,240" stroke="#aeaeb2" stroke-width="3" stroke-linecap="round" stroke-linejoin="round" />
  <rect x="774" y="235" width="30" height="10" rx="5" fill="#aeaeb2" />

  <!-- Row 2: Project/Dir Name (Gray) -->
  <rect x="210" y="305" width="280" height="30" rx="15" fill="#8e8e93" />

  <!-- Row 3: Action Indicator (Play Button + Text Pill) -->
  <path d="M210,380 L240,395 L210,410 Z" fill="#32d74b" />
  <rect x="260" y="375" width="300" height="40" rx="20" fill="#e5e5ea" />

  <!-- Row 4: Stats (Arrows + Values) -->
  <!-- Down stat -->
  <circle cx="225" cy="480" r="15" fill="none" stroke="#8e8e93" stroke-width="3" />
  <path d="M225,472 L225,488 M218,481 L225,488 L232,481" stroke="#8e8e93" stroke-width="3" stroke-linecap="round" stroke-linejoin="round" />
  <rect x="255" y="465" width="50" height="30" rx="15" fill="#48484a" />

  <!-- Up stat -->
  <circle cx="345" cy="480" r="15" fill="none" stroke="#8e8e93" stroke-width="3" />
  <path d="M345,488 L345,472 M338,479 L345,472 L352,479" stroke="#8e8e93" stroke-width="3" stroke-linecap="round" stroke-linejoin="round" />
  <rect x="375" y="465" width="80" height="30" rx="15" fill="#48484a" />


  <!-- 3. Hardware LEDs and Controls (Below Screen) -->
  
  <!-- LED Panel Bezel -->
  <rect x="262" y="700" width="500" height="150" rx="75" ry="75" fill="#d1d1d6" stroke="#aeaeb2" stroke-width="4" filter="drop-shadow(0 5px 5px rgba(0,0,0,0.2) inset)" />

  <!-- macOS Window Button Ordering: Red, Yellow, Green -->
  
  <!-- LED 1: Red (Inactive) -->
  <circle cx="362" cy="775" r="35" fill="#1c1c1e" stroke="#3a3a3c" stroke-width="4" />
  <circle cx="362" cy="775" r="25" fill="#ff453a" fill-opacity="0.3" />

  <!-- LED 2: Yellow (Inactive) -->
  <circle cx="512" cy="775" r="35" fill="#1c1c1e" stroke="#3a3a3c" stroke-width="4" />
  <circle cx="512" cy="775" r="25" fill="#ffd60a" fill-opacity="0.3" />

  <!-- LED 3: Green (Active & Glowing) -->
  <circle cx="662" cy="775" r="35" fill="#1c1c1e" stroke="#3a3a3c" stroke-width="4" />
  <circle cx="662" cy="775" r="25" fill="#32d74b" filter="url(#glow-green)" />


  <!-- Screw Details -->
  <circle cx="100" cy="100" r="15" fill="#aeaeb2" stroke="#8e8e93" stroke-width="2" />
  <line x1="90" y1="90" x2="110" y2="110" stroke="#8e8e93" stroke-width="3" />
  
  <circle cx="924" cy="100" r="15" fill="#aeaeb2" stroke="#8e8e93" stroke-width="2" />
  <line x1="914" y1="90" x2="934" y2="110" stroke="#8e8e93" stroke-width="3" />
  
  <circle cx="100" cy="924" r="15" fill="#aeaeb2" stroke="#8e8e93" stroke-width="2" />
  <line x1="90" y1="914" x2="110" y2="934" stroke="#8e8e93" stroke-width="3" />
  
  <circle cx="924" cy="924" r="15" fill="#aeaeb2" stroke="#8e8e93" stroke-width="2" />
  <line x1="914" y1="914" x2="934" y2="934" stroke="#8e8e93" stroke-width="3" />

</svg>